<svg width="16" height="16" viewBox="0 0 16 16" fill="none" xmlns="http://www.w3.org/2000/svg">
<circle cx="8" cy="8" r="8" fill="#204D9C"/>
<path d="M2.44036 8.88027C2.37916 8.8247 2.33055 8.75669 2.29778 8.68081C2.26502 8.60492 2.24885 8.52291 2.25036 8.44027C2.24739 8.35595 2.26286 8.27201 2.29568 8.19429C2.32849 8.11657 2.37787 8.04694 2.44036 7.99027C2.56561 7.87571 2.73071 7.8147 2.90036 7.82027C3.07001 7.8147 3.2351 7.87571 3.36036 7.99027C3.42285 8.04694 3.47223 8.11657 3.50504 8.19429C3.53786 8.27201 3.55332 8.35595 3.55036 8.44027C3.55187 8.52291 3.5357 8.60492 3.50293 8.68081C3.47016 8.75669 3.42155 8.8247 3.36036 8.88027C3.29962 8.93889 3.22737 8.98427 3.14819 9.01353C3.06901 9.04279 2.98462 9.0553 2.90036 9.05027C2.81609 9.0553 2.7317 9.04279 2.65252 9.01353C2.57334 8.98427 2.5011 8.93889 2.44036 8.88027ZM3.44036 9.56027V10.5603H2.44036V10.0103C2.44036 9.89092 2.48777 9.77646 2.57216 9.69207C2.65655 9.60768 2.77101 9.56027 2.89036 9.56027H3.44036Z" fill="white"/>
<path d="M12.2504 5.37028C12.1897 5.31431 12.1414 5.24623 12.1087 5.17044C12.0759 5.09465 12.0595 5.01283 12.0604 4.93028C12.0595 4.84773 12.0759 4.76591 12.1087 4.69012C12.1414 4.61432 12.1897 4.54624 12.2504 4.49028C12.3113 4.4313 12.3833 4.38501 12.4623 4.35411C12.5413 4.32321 12.6256 4.30831 12.7104 4.31028C12.7952 4.30774 12.8797 4.32238 12.9587 4.35331C13.0378 4.38425 13.1098 4.43083 13.1704 4.49028C13.2292 4.54712 13.2757 4.6156 13.3066 4.69135C13.3376 4.7671 13.3525 4.84846 13.3504 4.93028C13.3525 5.01209 13.3376 5.09346 13.3066 5.16921C13.2757 5.24496 13.2292 5.31343 13.1704 5.37028C13.1098 5.42972 13.0378 5.47631 12.9587 5.50724C12.8797 5.53817 12.7952 5.55281 12.7104 5.55028C12.6256 5.55225 12.5413 5.53735 12.4623 5.50645C12.3833 5.47555 12.3113 5.42926 12.2504 5.37028ZM13.2504 6.05028V10.5703H12.2504V6.49028C12.2504 6.37358 12.2967 6.26167 12.3792 6.17915C12.4618 6.09664 12.5737 6.05028 12.6904 6.05028H13.2504Z" fill="white"/>
<path d="M7.18037 7.06027V10.5703H6.18037V10.1203C6.07562 10.2649 5.93405 10.3789 5.77037 10.4503C5.60759 10.5269 5.43028 10.5679 5.25037 10.5703C5.02057 10.5719 4.7939 10.517 4.59037 10.4103C4.39491 10.3013 4.23515 10.138 4.13037 9.94027C4.01439 9.71109 3.95604 9.45709 3.96037 9.20027V7.31027H4.75037V9.08027C4.73407 9.29422 4.80228 9.50604 4.94037 9.67027C5.00672 9.74077 5.08757 9.79604 5.17734 9.8323C5.26711 9.86855 5.36367 9.88492 5.46037 9.88027C5.55857 9.88505 5.65666 9.86879 5.74807 9.83257C5.83948 9.79635 5.92209 9.74102 5.99037 9.67027C6.12846 9.50604 6.19667 9.29422 6.18037 9.08027V7.08027L7.18037 7.06027Z" fill="white"/>
<path d="M9.25037 6.67027C9.48778 6.54639 9.75264 6.48447 10.0204 6.49027C10.3487 6.49066 10.6701 6.58504 10.9465 6.76224C11.223 6.93944 11.4429 7.19207 11.5804 7.49027C11.725 7.81023 11.7935 8.15938 11.7804 8.51027C11.7886 8.88115 11.7062 9.24844 11.5404 9.58027C11.3931 9.87748 11.1686 10.1296 10.8904 10.3103C10.6172 10.4788 10.3014 10.5656 9.98037 10.5603C9.72614 10.5595 9.47581 10.4978 9.25037 10.3803C9.04071 10.2786 8.85884 10.1277 8.72037 9.94027V12.0803H7.72037V6.56027H8.72037V7.13027C8.85577 6.93501 9.038 6.77685 9.25037 6.67027ZM10.6504 7.90027C10.5624 7.72824 10.4224 7.58829 10.2504 7.50027C10.0921 7.41043 9.9123 7.36548 9.73037 7.37027C9.5602 7.36955 9.39347 7.41818 9.25037 7.51027C9.08501 7.60385 8.94973 7.7426 8.86037 7.91027C8.75928 8.10077 8.71095 8.31482 8.72037 8.53027C8.71328 8.74551 8.76148 8.95897 8.86037 9.15027C8.95265 9.31579 9.08724 9.45383 9.25037 9.55027C9.4018 9.64015 9.57428 9.68844 9.75037 9.69027C9.92738 9.68542 10.0999 9.63366 10.2504 9.54027C10.412 9.44521 10.5437 9.3066 10.6304 9.14027C10.7335 8.9466 10.7852 8.72966 10.7804 8.51027C10.7793 8.29538 10.7206 8.08472 10.6104 7.90027H10.6504Z" fill="white"/>
</svg>
