<svg width="10" height="10" viewBox="0 0 21 14" fill="none" xmlns="http://www.w3.org/2000/svg">
<g clip-path="url(#clip0_256_26)">
<path d="M0.334528 8.22193C0.228747 8.11796 0.144729 7.99397 0.0873776 7.85719C0.0300258 7.72041 0.000488281 7.57357 0.000488281 7.42525C0.000488281 7.27693 0.0300258 7.1301 0.0873776 6.99331C0.144729 6.85653 0.228747 6.73254 0.334528 6.62857C0.447558 6.52102 0.581177 6.43744 0.727347 6.38287C0.873517 6.3283 1.02922 6.30387 1.18508 6.31104C1.34092 6.30403 1.49657 6.32854 1.64272 6.3831C1.78886 6.43767 1.9225 6.52115 2.03562 6.62857C2.1414 6.73254 2.22542 6.85653 2.28277 6.99331C2.34012 7.1301 2.36966 7.27693 2.36966 7.42525C2.36966 7.57357 2.34012 7.72041 2.28277 7.85719C2.22542 7.99397 2.1414 8.11796 2.03562 8.22193C1.92432 8.32799 1.79309 8.41091 1.64953 8.4659C1.50597 8.5209 1.35292 8.54686 1.19925 8.5423C1.04085 8.55105 0.882344 8.52713 0.733584 8.47201C0.584824 8.4169 0.448991 8.33177 0.334528 8.22193ZM2.07531 9.44955V11.2669H0.283496V10.2689C0.283495 10.1622 0.304562 10.0565 0.345488 9.95796C0.386415 9.85939 0.446395 9.76988 0.521991 9.69455C0.597586 9.61922 0.687309 9.55955 0.786014 9.51897C0.884719 9.47838 0.990464 9.45769 1.09719 9.45806L2.07531 9.44955Z" fill="white"/>
<path d="M18.006 1.91084C17.8971 1.80985 17.8109 1.68683 17.7533 1.54995C17.6956 1.41307 17.6677 1.26548 17.6715 1.117C17.6678 0.968109 17.6958 0.820138 17.7534 0.682823C17.8111 0.545508 17.8972 0.421962 18.006 0.320317C18.2359 0.114296 18.5337 0.000366211 18.8424 0.000366211C19.1511 0.000366211 19.4489 0.114296 19.6788 0.320317C19.7872 0.422293 19.873 0.5459 19.9306 0.683137C19.9883 0.820374 20.0164 0.968182 20.0133 1.117C20.0164 1.26538 19.9882 1.41276 19.9305 1.54953C19.8729 1.6863 19.7871 1.8094 19.6788 1.91084C19.4489 2.11686 19.1511 2.23079 18.8424 2.23079C18.5337 2.23079 18.2359 2.11686 18.006 1.91084ZM19.7468 3.1413V11.2754H17.9522V3.92096C17.9529 3.71392 18.0357 3.51562 18.1824 3.36948C18.329 3.22335 18.5276 3.1413 18.7347 3.1413H19.7468Z" fill="white"/>
<path d="M8.87689 4.95581V11.2754H7.08791V10.4702C6.89242 10.724 6.63726 10.9256 6.34509 11.0571C6.03572 11.2025 5.69747 11.2762 5.35563 11.2725C4.93728 11.2823 4.52343 11.1847 4.15352 10.989C3.80224 10.7928 3.51709 10.4968 3.33416 10.1385C3.13143 9.7244 3.03405 9.26669 3.05064 8.80595V5.40377H4.51358V8.59899C4.48858 8.98372 4.61241 9.36335 4.85947 9.65933C4.98085 9.78473 5.12762 9.88273 5.28996 9.94679C5.4523 10.0108 5.62645 10.0395 5.80074 10.0307C5.97637 10.04 6.15193 10.0116 6.31572 9.94755C6.47951 9.8835 6.62774 9.78524 6.75052 9.65933C6.99453 9.36208 7.11528 8.98259 7.08791 8.59899V4.95581H8.87689Z" fill="white"/>
<path d="M12.5343 4.25277C12.9636 4.02864 13.4421 3.91558 13.9263 3.92389C14.5068 3.91659 15.0777 4.07281 15.5736 4.37468C16.0783 4.68666 16.4835 5.13614 16.7417 5.67035C17.0378 6.26497 17.1848 6.92277 17.1698 7.58691C17.1835 8.25455 17.0366 8.91572 16.7417 9.51482C16.4806 10.0486 16.0762 10.4992 15.5736 10.8162C15.0803 11.1253 14.5084 11.2858 13.9263 11.2783C13.4475 11.2879 12.9739 11.1778 12.5485 10.9579C12.1712 10.7622 11.8412 10.4864 11.5817 10.1499V14H9.78418V4.04864H11.5817V5.07496C11.8293 4.72901 12.1559 4.44714 12.5343 4.25277ZM15.0859 6.45568C14.925 6.1595 14.6857 5.91331 14.3941 5.74406C14.1105 5.58393 13.7899 5.50084 13.4642 5.50307C13.1411 5.50176 12.8237 5.58797 12.5456 5.75256C12.2536 5.92617 12.0144 6.17613 11.8538 6.47553C11.6726 6.81938 11.5828 7.20403 11.593 7.59258C11.5824 7.98027 11.6723 8.36411 11.8538 8.7068C12.0135 9.00758 12.2528 9.25867 12.5456 9.4326C12.8242 9.5959 13.1413 9.68202 13.4642 9.68209C13.7921 9.68393 14.1141 9.59461 14.3941 9.42409C14.6858 9.24749 14.9247 8.99586 15.0859 8.69546C15.2698 8.34636 15.3606 7.95579 15.3496 7.56139C15.3534 7.17814 15.2587 6.80032 15.0746 6.46419L15.0859 6.45568Z" fill="white"/>
</g>
<defs>
<clipPath id="clip0_256_26">
<rect width="20.0134" height="14" fill="#0048b2"/>
</clipPath>
</defs>
</svg>
